<?xml version="1.0" encoding="iso-8859-1"?>

<!DOCTYPE svg PUBLIC "-//W3C//DTD SVG 1.1//EN" "http://www.w3.org/Graphics/SVG/1.1/DTD/svg11.dtd">
<!-- Uploaded to: SVG Repo, www.svgrepo.com, Generator: SVG Repo Mixer Tools -->
<svg height="800px" width="800px" version="1.1" id="_x36_" xmlns="http://www.w3.org/2000/svg" xmlns:xlink="http://www.w3.org/1999/xlink" 
	 viewBox="0 0 512 512"  xml:space="preserve">
<g>
	<g>
		<path style="fill:#7F3625;" d="M106.633,15.056c-6.087-1.807-10.09-4.892-12.754-8.639c-2.658-3.767-3.977-8.35-3.977-13.232
			c-0.019-7.833,3.512-16.247,9.758-21.894c2.9-2.652,7.98-5.717,14.073-8.534c9.147-4.252,20.587-8.082,31.053-10.807
			c5.227-1.351,10.217-2.448,14.538-3.181c4.309-0.743,7.987-1.112,10.364-1.112c0.969,0,1.702,0.07,2.072,0.134l0.191,0.041
			l0.032,0.01l0.708-2.167l-1.351,1.794c0.401,0.3,0.618,0.351,0.643,0.373l0.708-2.167l-1.351,1.794
			c0.618,0.465,1.848,1.447,3.441,2.725c5.603,4.513,15.865,12.903,25.597,20.221c4.876,3.665,9.599,7.049,13.672,9.621
			c2.039,1.278,3.901,2.361,5.647,3.187c0.886,0.414,1.728,0.775,2.626,1.055c0.899,0.277,1.823,0.516,3.059,0.526
			c0.523,0,1.103-0.051,1.734-0.207h0.012c1.701-0.424,3.996-1.103,6.584-1.887c7.744-2.365,17.93-5.762,17.949-5.772l-3.359-10.115
			c-0.006,0.01-1.128,0.382-2.906,0.972c-2.677,0.877-6.832,2.228-10.867,3.496c-4.015,1.271-7.98,2.47-9.981,2.964h0.019
			l0.816,3.343v-3.445c-0.185,0-0.459,0.009-0.816,0.102l0.816,3.343v-3.445v1.577l0.338-1.559c-0.006,0-0.083-0.019-0.338-0.019
			v1.577l0.338-1.559c-0.038,0-0.414-0.115-0.95-0.341c-1.014-0.433-2.575-1.278-4.385-2.402c-3.193-1.963-7.202-4.78-11.441-7.92
			c-6.368-4.707-13.258-10.157-18.981-14.758c-2.868-2.301-5.443-4.389-7.534-6.068c-2.104-1.705-3.678-2.964-4.698-3.729
			c-0.758-0.567-1.478-0.899-2.154-1.144c-1.007-0.363-1.938-0.538-2.906-0.65c-0.956-0.115-1.938-0.156-2.983-0.156
			c-4.499,0.009-10.306,0.816-17.018,2.179c-10.051,2.053-21.97,5.396-32.914,9.526c-5.469,2.065-10.689,4.325-15.329,6.76
			c-4.653,2.448-8.713,5.029-11.931,7.948c-8.56,7.805-13.232,18.86-13.251,29.769c0,6.791,1.855,13.604,5.921,19.373
			c4.054,5.772,10.332,10.342,18.459,12.716L106.633,15.056z"/>
	</g>
	<path style="fill:#833320;" d="M236.633-29.687l34.157-16.753c0,0,4.697,11.747-11.218,22.235c-9.286,6.11-19.057,4.56-19.057,4.56
		L236.633-29.687z"/>
	<polygon style="fill:#7F3625;" points="126.048,132.146 146.596,201.629 141.357,267.286 164.749,271.868 177.376,197.234 
		172.965,123.372 	"/>
	<polygon style="fill:#7F3625;" points="307.515,211.136 356.051,241.287 339.664,296.879 362.559,304.91 390.807,224.431 
		345.872,178.107 	"/>
	<polygon style="fill:#9C4E3C;" points="462.76,212.436 414.065,224.989 358.658,173.846 350.136,180.233 311.907,215.575 
		273.422,242.039 243.586,323.011 218.174,320.175 235.064,254.818 247.85,199.411 192.443,190.896 110.47,165.082 81.642,218.59 
		30.008,291.531 0,288.612 47.542,207.936 53.935,103.524 81.151,17.348 174.909,-19.585 226.543,22.549 309.816,-0.034 
		337.35,3.373 394.268,63.102 455.871,115.475 456.387,122.7 459.586,167.816 	"/>
	<path style="fill:#7F3625;" d="M443.187,151.828l-8.521-11.364l1.421,7.814c0,0-5.679,9.226,0,11.355
		C441.772,161.768,443.187,151.828,443.187,151.828z"/>
	<path style="fill:#9C4E3C;" d="M403.899,101.892l-28.669,17.888c0,0,15.763,17.432,35.317,10.877L403.899,101.892z"/>
	<polygon style="fill:#7F3625;" points="226.543,22.549 159.421,50.252 198.836,0.174 	"/>
	<polygon style="fill:#7F3625;" points="222.992,185.208 149.828,159.633 106.499,117.725 102.235,178.821 102.478,179.933 
		110.477,165.092 192.443,190.896 247.85,199.411 257.086,164.607 246.429,180.946 	"/>
	<polygon style="fill:#7F3625;" points="414.065,224.989 362.922,145.078 311.907,215.565 362.922,175.971 	"/>
	<polygon style="fill:#7F3625;" points="452.423,197.821 452.951,209.001 443.901,210.074 	"/>
	<polygon style="fill:#9E523F;" points="459.586,167.816 415.658,116.31 447.094,110.975 456.387,122.7 	"/>
	<path style="fill:#FCE7DD;" d="M411.56,103.225c0,0,11.964-29.708,41.601-25.721c29.645,3.974,41.64,24.947,58.837,19.858
		c0.21,6.855-16.801,14.822-30.779,12.945c-8.465-1.138-39.671-9.88-42.041,12.002C434.544,131.371,408.495,117.613,411.56,103.225z
		"/>
</g>
</svg>